<?xml version="1.0" encoding="UTF-8" standalone="no"?>
<!-- Created with Inkscape (http://www.inkscape.org/) -->

<svg
   version="1.1"
   id="svg549"
   xml:space="preserve"
   width="32"
   height="32"
   viewBox="0 0 32 32"
   xmlns="http://www.w3.org/2000/svg"
   xmlns:svg="http://www.w3.org/2000/svg"><defs
     id="defs553"><clipPath
       clipPathUnits="userSpaceOnUse"
       id="clipPath563"><path
         d="M 0,24 H 24 V 0 H 0 Z"
         id="path561" /></clipPath></defs><g
     id="g555"
     transform="matrix(1.3333333,0,0,-1.3333333,0,32)"><g
       id="g557"><g
         id="g559"
         clip-path="url(#clipPath563)"><g
           id="g565"
           transform="translate(18.999,1)"><path
             d="m 0,0 h -13.998 c -2.485,0 -4.368,2.242 -3.94,4.689 l 2.449,14 c 0.335,1.915 1.997,3.311 3.941,3.311 h 9.085 c 1.942,0 3.603,-1.395 3.94,-3.307 l 2.462,-14 C 4.37,2.244 2.486,0 0,0 Z"
             style="fill:none;stroke:#000000;stroke-width:2;stroke-linecap:round;stroke-linejoin:round;stroke-miterlimit:10;stroke-dasharray:none;stroke-opacity:1"
             id="path567" /></g><g
           id="g569"
           transform="translate(12,19)"><path
             d="M 0,0 V -2"
             style="fill:none;stroke:#000000;stroke-width:2;stroke-linecap:round;stroke-linejoin:round;stroke-miterlimit:10;stroke-dasharray:none;stroke-opacity:1"
             id="path571" /></g><g
           id="g573"
           transform="translate(12,13)"><path
             d="M 0,0 V -2"
             style="fill:none;stroke:#000000;stroke-width:2;stroke-linecap:round;stroke-linejoin:round;stroke-miterlimit:10;stroke-dasharray:none;stroke-opacity:1"
             id="path575" /></g><g
           id="g577"
           transform="translate(12,7)"><path
             d="M 0,0 V -2"
             style="fill:none;stroke:#000000;stroke-width:2;stroke-linecap:round;stroke-linejoin:round;stroke-miterlimit:10;stroke-dasharray:none;stroke-opacity:1"
             id="path579" /></g></g></g></g></svg>
